<svg width="8" height="14" viewBox="0 0 8 14" fill="none" xmlns="http://www.w3.org/2000/svg">
<path d="M2.19101 13.6384L7.62117 7.92787C7.74121 7.80412 7.83649 7.6569 7.9015 7.49469C7.96652 7.33248 8 7.1585 8 6.98278C8 6.80705 7.96652 6.63307 7.9015 6.47086C7.83649 6.30865 7.74121 6.16143 7.62117 6.03768L2.19101 0.393742C2.07195 0.268979 1.9303 0.169951 1.77424 0.102372C1.61818 0.0347925 1.45078 -2.86275e-07 1.28171 -2.93666e-07C1.11265 -3.01056e-07 0.945251 0.0347925 0.789186 0.102372C0.633121 0.169951 0.491474 0.268978 0.372416 0.393742C0.133885 0.643144 -9.96534e-07 0.980518 -1.01191e-06 1.33218C-1.02728e-06 1.68384 0.133885 2.02122 0.372416 2.27062L4.90609 6.98278L0.372416 11.6949C0.135815 11.9429 0.00242799 12.2775 0.00101368 12.6267C3.90179e-05 12.8019 0.0323443 12.9756 0.0960773 13.1377C0.159811 13.2999 0.253719 13.4474 0.372416 13.5718C0.48719 13.701 0.625461 13.8053 0.779242 13.8787C0.933023 13.952 1.09926 13.993 1.26836 13.9992C1.43746 14.0054 1.60606 13.9767 1.76442 13.9147C1.92279 13.8528 2.06777 13.7589 2.19101 13.6384Z" fill="white"/>
</svg>
